<svg id="Layer_1" data-name="Layer 1" xmlns="http://www.w3.org/2000/svg" width="150" height="50" viewBox="390 20 125 50">
	<defs>
		<style>
			.cls-1 {
				fill:transparent;
			}

			.cls-2 {
				fill:white;
			}
		</style>
	</defs>

	<title>logo-nuget</title>
	<path class="cls-1" d="M144.83,55.45V45.35q0-6.26-4.51-6.26a5.23,5.23,0,0,0-4.12,1.84,6.66,6.66,0,0,0-1.61,4.55v10H133V38.09h1.56v3.15h.07a6.28,6.28,0,0,1,5.93-3.58,5.18,5.18,0,0,1,4.31,1.87,8.41,8.41,0,0,1,1.49,5.35V55.45Z" />
	<path class="cls-1" d="M163.07,55.45V52.3H163a5.92,5.92,0,0,1-5.6,3.58q-6.15,0-6.15-7.75v-10h1.58v9.65q0,3.53,1.16,5.12a4.22,4.22,0,0,0,3.65,1.59,4.89,4.89,0,0,0,3.93-1.78,7.12,7.12,0,0,0,1.5-4.75V38.09h1.56V55.45Z" />
	<path class="cls-1" d="M184.08,54.16q0,4.9-2.14,7.17t-6.65,2.27a11.59,11.59,0,0,1-5.17-1.32V60.66a10.76,10.76,0,0,0,5.21,1.53q7.19,0,7.19-7.6V52.33h-.07a6.75,6.75,0,0,1-6.26,3.54A6.62,6.62,0,0,1,171,53.55a9.53,9.53,0,0,1-2-6.48,10.24,10.24,0,0,1,2.19-6.78,7.13,7.13,0,0,1,5.76-2.63,5.87,5.87,0,0,1,5.56,3.17h.07V38.09h1.56Zm-1.56-9.41a5.67,5.67,0,0,0-1.55-4,5.25,5.25,0,0,0-4-1.68,5.65,5.65,0,0,0-4.61,2.15,8.77,8.77,0,0,0-1.75,5.7,8.56,8.56,0,0,0,1.6,5.54,5.18,5.18,0,0,0,4.23,2,5.75,5.75,0,0,0,4.46-1.81,6.34,6.34,0,0,0,1.66-4.44Z" />
	<path class="cls-1" d="M190,46.84a8.59,8.59,0,0,0,1.65,5.6,5.55,5.55,0,0,0,4.54,2,9.23,9.23,0,0,0,5.7-2.15V54a10.14,10.14,0,0,1-6,1.92,6.81,6.81,0,0,1-5.43-2.41,10.12,10.12,0,0,1-2.07-6.8,9.68,9.68,0,0,1,2.16-6.4,7,7,0,0,1,5.62-2.6,5.87,5.87,0,0,1,5,2.27,10,10,0,0,1,1.73,6.21v.69Zm11.22-1.42a7.69,7.69,0,0,0-1.44-4.66,4.49,4.49,0,0,0-3.7-1.66,5.43,5.43,0,0,0-4,1.64,7.86,7.86,0,0,0-2,4.69Z" />
	<path class="cls-1" d="M214,55.21a5.38,5.38,0,0,1-2.29.58q-3.85,0-3.85-4.61V39.51h-3.12V38.09h3.12V33.58l.78-.27.78-.25v5H214v1.42h-4.58V51a4.61,4.61,0,0,0,.57,2.6,2.19,2.19,0,0,0,1.92.8,4.31,4.31,0,0,0,2.09-.63Z" />
	<g id="mark"><g id="mark-2" data-name="mark"><path class="cls-1" d="M111.78,32.78h-9.65a8.9,8.9,0,0,0-8.9,8.9v9.65a8.9,8.9,0,0,0,8.9,8.9h9.65a8.9,8.9,0,0,0,8.9-8.9V41.69A8.9,8.9,0,0,0,111.78,32.78ZM100,44.06a3.61,3.61,0,1,1,3.61-3.61A3.61,3.61,0,0,1,100,44.06ZM111.52,57.3a5.78,5.78,0,1,1,5.78-5.78A5.78,5.78,0,0,1,111.52,57.3Z" /></g><circle class="cls-1" cx="88.85" cy="29.39" r="2.89" /></g>
	<path class="cls-2" d="M444.83,55.4V45.29q0-6.26-4.51-6.26a5.23,5.23,0,0,0-4.12,1.84,6.66,6.66,0,0,0-1.61,4.55v10H433V38h1.56v3.15h.07a6.28,6.28,0,0,1,5.93-3.58,5.18,5.18,0,0,1,4.31,1.87,8.41,8.41,0,0,1,1.49,5.35V55.4Z" />
	<path class="cls-2" d="M463.07,55.4V52.24H463a5.92,5.92,0,0,1-5.6,3.58q-6.15,0-6.15-7.75V38h1.58v9.65q0,3.53,1.16,5.12a4.22,4.22,0,0,0,3.65,1.59,4.89,4.89,0,0,0,3.93-1.78,7.12,7.12,0,0,0,1.5-4.75V38h1.56V55.4Z" />
	<path class="cls-2" d="M484.08,54.11q0,4.9-2.14,7.17t-6.65,2.27a11.59,11.59,0,0,1-5.17-1.32V60.6a10.76,10.76,0,0,0,5.21,1.53q7.19,0,7.19-7.6V52.28h-.07a6.75,6.75,0,0,1-6.26,3.54A6.62,6.62,0,0,1,471,53.5a9.53,9.53,0,0,1-2-6.48,10.24,10.24,0,0,1,2.19-6.78,7.13,7.13,0,0,1,5.76-2.63,5.87,5.87,0,0,1,5.56,3.17h.07V38h1.56Zm-1.56-9.41a5.67,5.67,0,0,0-1.55-4,5.25,5.25,0,0,0-4-1.68,5.65,5.65,0,0,0-4.61,2.15,8.77,8.77,0,0,0-1.75,5.7,8.56,8.56,0,0,0,1.6,5.54,5.18,5.18,0,0,0,4.23,2,5.75,5.75,0,0,0,4.46-1.81,6.34,6.34,0,0,0,1.66-4.44Z" />
	<path class="cls-2" d="M490,46.78a8.59,8.59,0,0,0,1.65,5.6,5.55,5.55,0,0,0,4.54,2,9.23,9.23,0,0,0,5.7-2.15V53.9a10.14,10.14,0,0,1-6,1.92,6.81,6.81,0,0,1-5.43-2.41,10.12,10.12,0,0,1-2.07-6.8,9.68,9.68,0,0,1,2.16-6.4,7,7,0,0,1,5.62-2.6,5.87,5.87,0,0,1,5,2.27,10,10,0,0,1,1.73,6.21v.69Zm11.22-1.42a7.69,7.69,0,0,0-1.44-4.66A4.49,4.49,0,0,0,496.1,39a5.43,5.43,0,0,0-4,1.64,7.86,7.86,0,0,0-2,4.69Z" />
	<path class="cls-2" d="M514,55.16a5.38,5.38,0,0,1-2.29.58q-3.85,0-3.85-4.61V39.46h-3.12V38h3.12V33.52l.78-.27.78-.25v5H514v1.42h-4.58V50.92a4.61,4.61,0,0,0,.57,2.6,2.19,2.19,0,0,0,1.92.8A4.31,4.31,0,0,0,514,53.7Z" />
	<g id="mark-3" data-name="mark"><g id="mark-4" data-name="mark"><path class="cls-2" d="M411.78,32.73h-9.65a8.9,8.9,0,0,0-8.9,8.9v9.65a8.9,8.9,0,0,0,8.9,8.9h9.65a8.9,8.9,0,0,0,8.9-8.9V41.63A8.9,8.9,0,0,0,411.78,32.73ZM400,44a3.61,3.61,0,1,1,3.61-3.61A3.61,3.61,0,0,1,400,44Zm11.53,13.25a5.78,5.78,0,1,1,5.78-5.78A5.78,5.78,0,0,1,411.52,57.25Z" /></g><circle class="cls-2" cx="388.85" cy="29.34" r="2.89" /></g>
</svg>