<?xml version="1.0" encoding="utf-8"?>
<!-- Generator: Adobe Illustrator 20.1.0, SVG Export Plug-In . SVG Version: 6.00 Build 0)  -->
<svg version="1.1" id="Layer_1" xmlns="http://www.w3.org/2000/svg" xmlns:xlink="http://www.w3.org/1999/xlink" x="0px" y="0px"
	 viewBox="0 0 600 92" style="enable-background:new 0 0 600 92;" xml:space="preserve" width="600" height="92">
<style type="text/css">
	.st0{fill:#5C2D91;}
	.st1{fill:#FFFFFF;}
</style>
<path class="st0" d="M117.6,36.4l-7.1,19.2H108l-7-19.2h2.5l5.3,15.2c0.2,0.6,0.3,1.1,0.4,1.7h0.1c0.1-0.6,0.2-1.1,0.4-1.7l5.4-15.2
	C115.1,36.4,117.6,36.4,117.6,36.4z"/>
<path class="st0" d="M132.7,51.9c0,1.1-0.5,2.2-1.4,2.9c-1,0.8-2.3,1.2-3.6,1.1c-1.2,0-2.4-0.2-3.4-0.8v-2.4c1,0.8,2.3,1.3,3.6,1.3
	c1.7,0,2.6-0.6,2.6-1.9c0-0.5-0.2-0.9-0.5-1.3c-0.7-0.5-1.5-1-2.3-1.3c-1-0.4-1.8-0.9-2.6-1.7c-0.5-0.7-0.8-1.5-0.8-2.4
	c0-1.1,0.5-2.2,1.4-2.8c1-0.8,2.2-1.2,3.5-1.1c1,0,2,0.2,2.9,0.6v2.2c-0.9-0.7-2-1-3.1-1c-0.6,0-1.2,0.2-1.7,0.5
	c-0.4,0.3-0.7,0.8-0.7,1.4c0,0.5,0.2,1,0.5,1.4c0.6,0.5,1.3,0.9,2.1,1.2c1,0.4,1.9,1,2.7,1.7C132.4,50.3,132.7,51.1,132.7,51.9z"/>
<path class="st0" d="M146.1,55.6h-2.2v-2.2l0,0c-0.8,1.6-2.4,2.6-4.2,2.5c-3.3,0-4.9-1.9-4.9-5.8v-8.2h2.2v7.8
	c0,2.9,1.1,4.3,3.3,4.3c1,0,2-0.4,2.6-1.2c0.7-0.9,1-2,1-3.1v-7.9h2.2V55.6z"/>
<path class="st0" d="M159.2,55.6H157v-2.1l0,0c-1.4,2.4-4.4,3.2-6.8,1.8c-0.2-0.1-0.4-0.3-0.6-0.4c-0.8-0.7-1.2-1.8-1.2-2.9
	c0-2.5,1.5-4,4.5-4.5l4.1-0.6c0-2.3-0.9-3.5-2.8-3.5c-1.6,0-3.2,0.6-4.5,1.7v-2.2c0.6-0.4,1.3-0.7,2.1-0.9c0.8-0.3,1.7-0.4,2.6-0.4
	c3.2,0,4.8,1.7,4.8,5.1V55.6z M157,48.7l-3.3,0.5c-0.9,0.1-1.7,0.3-2.4,0.8c-0.5,0.5-0.7,1.2-0.7,1.8c0,0.6,0.2,1.2,0.7,1.7
	c0.5,0.4,1.2,0.7,1.9,0.6c1,0,2-0.4,2.7-1.2c0.7-0.8,1.1-1.8,1.1-2.9C157,50,157,48.7,157,48.7z"/>
<path class="st0" d="M164.7,55.6h-2.2V35.3h2.2V55.6z"/>
<path class="st0" d="M182.1,50.8c0.1,1.5-0.6,2.9-1.7,3.8c-1.3,1-3,1.5-4.7,1.4c-0.8,0-1.6-0.1-2.4-0.4c-0.7-0.1-1.3-0.4-1.9-0.7
	v-2.7c0.6,0.5,1.3,1,2.1,1.2c0.8,0.3,1.6,0.5,2.5,0.5c2.5,0,3.7-1,3.7-2.9c0-0.8-0.3-1.5-0.8-2.1c-1-0.9-2-1.7-3.2-2.3
	c-1.3-0.6-2.4-1.5-3.3-2.5c-0.7-0.8-1-1.9-1-3c0-1.4,0.6-2.8,1.7-3.7c1.2-1,2.8-1.5,4.4-1.4c1.3-0.1,2.6,0.1,3.8,0.7v2.5
	c-1.1-0.8-2.5-1.2-3.9-1.2c-0.9,0-1.9,0.2-2.6,0.8c-0.7,0.5-1,1.3-1,2.1c0,0.5,0.1,1.1,0.3,1.5c0.3,0.4,0.6,0.8,1,1.1
	c0.8,0.6,1.6,1.1,2.4,1.5c1.3,0.7,2.5,1.6,3.6,2.7C181.7,48.7,182.1,49.7,182.1,50.8z"/>
<path class="st0" d="M190.8,55.5c-0.6,0.3-1.3,0.5-2.1,0.4c-2.4,0-3.6-1.3-3.6-4v-8.1h-2.4v-1.9h2.4v-3.3l2.2-0.7V42h3.4v1.9h-3.4
	v7.7c-0.1,0.7,0.1,1.4,0.5,2c0.4,0.4,1,0.7,1.6,0.6c0.5,0,1-0.1,1.4-0.4L190.8,55.5z"/>
<path class="st0" d="M204,55.6h-2.2v-2.2h-0.1c-0.8,1.6-2.4,2.6-4.2,2.5c-3.3,0-4.9-1.9-4.9-5.8v-8.2h2.2v7.8c0,2.9,1.1,4.3,3.3,4.3
	c1,0,2-0.4,2.6-1.2c0.7-0.9,1.1-2,1-3.1v-7.9h2.2L204,55.6z"/>
<path class="st0" d="M219.1,55.6h-2.2v-2.3h-0.1c-1.6,2.6-5,3.4-7.6,1.9c-0.5-0.3-0.9-0.7-1.3-1.1c-1.1-1.4-1.6-3.2-1.5-5
	c-0.1-2,0.5-3.9,1.7-5.5c1.1-1.4,2.8-2.1,4.6-2c1.7-0.1,3.3,0.8,4.1,2.2h0.1v-8.5h2.2V55.6z M216.9,49.4v-2c0-1.1-0.4-2.1-1.1-2.8
	c-0.7-0.7-1.7-1.1-2.8-1.1c-1.2,0-2.4,0.5-3.1,1.5c-0.8,1.2-1.3,2.6-1.2,4.1c-0.1,1.3,0.3,2.6,1.1,3.7c0.7,0.9,1.8,1.4,3,1.4
	c1.1,0,2.2-0.5,3-1.3C216.5,51.8,216.9,50.6,216.9,49.4L216.9,49.4z"/>
<path class="st0" d="M240.6,48.7c0.1,1.9-0.6,3.8-1.9,5.2c-1.3,1.3-3.1,2.1-5,2c-1.8,0.1-3.6-0.6-4.8-1.9c-1.2-1.4-1.9-3.2-1.8-5.1
	c-0.1-2,0.6-3.9,1.9-5.4c1.3-1.4,3.2-2.1,5.1-2c1.8-0.1,3.6,0.6,4.8,1.9C240.1,44.9,240.7,46.8,240.6,48.7z M238.3,48.8
	c0.1-1.4-0.3-2.8-1.1-4c-0.8-0.9-2-1.5-3.3-1.4c-1.3-0.1-2.5,0.5-3.3,1.4c-0.9,1.1-1.3,2.6-1.2,4c-0.1,1.4,0.4,2.8,1.2,3.8
	c0.9,0.9,2.1,1.4,3.3,1.4c1.2,0.1,2.5-0.4,3.3-1.4S238.4,50.2,238.3,48.8L238.3,48.8z"/>
<path class="st0" d="M122,37.4c0,0.4-0.1,0.8-0.4,1c-0.6,0.5-1.5,0.5-2,0c-0.3-0.3-0.4-0.6-0.4-1c0-0.4,0.1-0.7,0.4-1
	c0.3-0.3,0.6-0.4,1-0.4s0.8,0.1,1,0.4C121.8,36.7,122,37,122,37.4z M121.6,55.6h-2.2V41.9h2.2V55.6z"/>
<path class="st0" d="M224.9,37.4c0,0.4-0.1,0.8-0.4,1c-0.6,0.5-1.5,0.5-2,0c-0.3-0.3-0.4-0.6-0.4-1c0-0.4,0.1-0.7,0.4-1
	c0.3-0.3,0.6-0.4,1-0.4s0.8,0.1,1,0.4C224.8,36.6,225,37,224.9,37.4z M224.6,55.6h-2.2V41.9h2.2V55.6z"/>
<path class="st0" d="M83.4,30L70.7,42.7l-8.1-6.3L59.4,38v16l3.2,1.6l8.1-6.3L83.4,62l8-3.2V33.2L83.4,30z M62.6,50.8v-9.6l4.8,4.8
	L62.6,50.8z M75,46l8.5-6.6v13.2L75,46z"/>
<path class="st1" d="M417.6,36.4l-7.1,19.2H408l-7-19.2h2.5l5.3,15.2c0.2,0.6,0.3,1.1,0.4,1.7h0.1c0.1-0.6,0.2-1.1,0.4-1.7l5.4-15.2
	C415.1,36.4,417.6,36.4,417.6,36.4z"/>
<path class="st1" d="M432.7,51.9c0,1.1-0.5,2.2-1.4,2.9c-1,0.8-2.3,1.2-3.6,1.1c-1.2,0-2.4-0.2-3.4-0.8v-2.4c1,0.8,2.3,1.3,3.6,1.3
	c1.7,0,2.6-0.6,2.6-1.9c0-0.5-0.2-0.9-0.5-1.3c-0.7-0.5-1.5-1-2.3-1.3c-1-0.4-1.8-0.9-2.6-1.7c-0.5-0.7-0.8-1.5-0.8-2.4
	c0-1.1,0.5-2.2,1.4-2.8c1-0.8,2.2-1.2,3.5-1.1c1,0,2,0.2,2.9,0.6v2.2c-0.9-0.7-2-1-3.1-1c-0.6,0-1.2,0.2-1.7,0.5
	c-0.4,0.3-0.7,0.8-0.7,1.4c0,0.5,0.2,1,0.5,1.4c0.6,0.5,1.3,0.9,2.1,1.2c1,0.4,1.9,1,2.7,1.7C432.4,50.3,432.7,51.1,432.7,51.9z"/>
<path class="st1" d="M446.1,55.6h-2.2v-2.2l0,0c-0.8,1.6-2.4,2.6-4.2,2.5c-3.3,0-4.9-1.9-4.9-5.8v-8.2h2.2v7.8
	c0,2.9,1.1,4.3,3.3,4.3c1,0,2-0.4,2.6-1.2c0.7-0.9,1-2,1-3.1v-7.9h2.2V55.6z"/>
<path class="st1" d="M459.2,55.6H457v-2.1l0,0c-1.4,2.4-4.4,3.2-6.8,1.8c-0.2-0.1-0.4-0.3-0.6-0.4c-0.8-0.7-1.2-1.8-1.2-2.9
	c0-2.5,1.5-4,4.5-4.5l4.1-0.6c0-2.3-0.9-3.5-2.8-3.5c-1.6,0-3.2,0.6-4.5,1.7v-2.2c0.6-0.4,1.3-0.7,2.1-0.9c0.8-0.3,1.7-0.4,2.6-0.4
	c3.2,0,4.8,1.7,4.8,5.1V55.6z M457,48.7l-3.3,0.5c-0.9,0.1-1.7,0.3-2.4,0.8c-0.5,0.5-0.7,1.2-0.7,1.8c0,0.6,0.2,1.2,0.7,1.7
	c0.5,0.4,1.2,0.7,1.9,0.6c1,0,2-0.4,2.7-1.2c0.7-0.8,1.1-1.8,1.1-2.9L457,48.7L457,48.7z"/>
<path class="st1" d="M464.7,55.6h-2.2V35.3h2.2V55.6z"/>
<path class="st1" d="M482.1,50.8c0.1,1.5-0.6,2.9-1.7,3.8c-1.3,1-3,1.5-4.7,1.4c-0.8,0-1.6-0.1-2.4-0.4c-0.7-0.1-1.3-0.4-1.9-0.7
	v-2.7c0.6,0.5,1.3,1,2.1,1.2c0.8,0.3,1.6,0.5,2.5,0.5c2.5,0,3.7-1,3.7-2.9c0-0.8-0.3-1.5-0.8-2.1c-1-0.9-2-1.7-3.2-2.3
	c-1.3-0.6-2.4-1.5-3.3-2.5c-0.7-0.8-1-1.9-1-3c0-1.4,0.6-2.8,1.7-3.7c1.2-1,2.8-1.5,4.4-1.4c1.3-0.1,2.6,0.1,3.8,0.7v2.5
	c-1.1-0.8-2.5-1.2-3.9-1.2c-0.9,0-1.9,0.2-2.6,0.8c-0.7,0.5-1,1.3-1,2.1c0,0.5,0.1,1.1,0.3,1.5c0.3,0.4,0.6,0.8,1,1.1
	c0.8,0.6,1.6,1.1,2.4,1.5c1.3,0.7,2.5,1.6,3.6,2.7C481.7,48.7,482.1,49.7,482.1,50.8z"/>
<path class="st1" d="M490.8,55.5c-0.6,0.3-1.3,0.5-2.1,0.4c-2.4,0-3.6-1.3-3.6-4v-8.1h-2.4v-1.9h2.4v-3.3l2.2-0.7V42h3.4v1.9h-3.4
	v7.7c-0.1,0.7,0.1,1.4,0.5,2c0.4,0.4,1,0.7,1.6,0.6c0.5,0,1-0.1,1.4-0.4V55.5z"/>
<path class="st1" d="M504,55.6h-2.2v-2.2h-0.1c-0.8,1.6-2.4,2.6-4.2,2.5c-3.3,0-4.9-1.9-4.9-5.8v-8.2h2.2v7.8c0,2.9,1.1,4.3,3.3,4.3
	c1,0,2-0.4,2.6-1.2c0.7-0.9,1.1-2,1-3.1v-7.9h2.2L504,55.6z"/>
<path class="st1" d="M519.1,55.6h-2.2v-2.3h-0.1c-1.6,2.6-5,3.4-7.6,1.9c-0.5-0.3-0.9-0.7-1.3-1.1c-1.1-1.4-1.6-3.2-1.5-5
	c-0.1-2,0.5-3.9,1.7-5.5c1.1-1.4,2.8-2.1,4.6-2c1.7-0.1,3.3,0.8,4.1,2.2h0.1v-8.5h2.2L519.1,55.6L519.1,55.6z M516.9,49.4v-2
	c0-1.1-0.4-2.1-1.1-2.8c-0.7-0.7-1.7-1.1-2.8-1.1c-1.2,0-2.4,0.5-3.1,1.5c-0.8,1.2-1.3,2.6-1.2,4.1c-0.1,1.3,0.3,2.6,1.1,3.7
	c0.7,0.9,1.8,1.4,3,1.4c1.1,0,2.2-0.5,3-1.3C516.5,51.8,516.9,50.6,516.9,49.4L516.9,49.4z"/>
<path class="st1" d="M540.6,48.7c0.1,1.9-0.6,3.8-1.9,5.2c-1.3,1.3-3.1,2.1-5,2c-1.8,0.1-3.6-0.6-4.8-1.9c-1.2-1.4-1.9-3.2-1.8-5.1
	c-0.1-2,0.6-3.9,1.9-5.4c1.3-1.4,3.2-2.1,5.1-2c1.8-0.1,3.6,0.6,4.8,1.9C540.1,44.9,540.7,46.8,540.6,48.7z M538.3,48.8
	c0.1-1.4-0.3-2.8-1.1-4c-0.8-0.9-2-1.5-3.3-1.4c-1.3-0.1-2.5,0.5-3.3,1.4c-0.9,1.1-1.3,2.6-1.2,4c-0.1,1.4,0.4,2.8,1.2,3.8
	c0.9,0.9,2.1,1.4,3.3,1.4c1.2,0.1,2.5-0.4,3.3-1.4C538,51.6,538.4,50.2,538.3,48.8L538.3,48.8z"/>
<path class="st1" d="M422,37.4c0,0.4-0.1,0.8-0.4,1c-0.6,0.5-1.5,0.5-2,0c-0.3-0.3-0.4-0.6-0.4-1c0-0.4,0.1-0.7,0.4-1
	c0.3-0.3,0.6-0.4,1-0.4s0.8,0.1,1,0.4C421.8,36.7,422,37,422,37.4z M421.6,55.6h-2.2V41.9h2.2V55.6z"/>
<path class="st1" d="M524.9,37.4c0,0.4-0.1,0.8-0.4,1c-0.6,0.5-1.5,0.5-2,0c-0.3-0.3-0.4-0.6-0.4-1c0-0.4,0.1-0.7,0.4-1
	c0.3-0.3,0.6-0.4,1-0.4c0.4,0,0.8,0.1,1,0.4C524.8,36.6,525,37,524.9,37.4z M524.6,55.6h-2.2V41.9h2.2V55.6z"/>
<path class="st1" d="M383.4,30l-12.7,12.7l-8.1-6.3l-3.2,1.6v16l3.2,1.6l8.1-6.3L383.4,62l8-3.2V33.2L383.4,30z M362.6,50.8v-9.6
	l4.8,4.8L362.6,50.8z M375,46l8.5-6.6v13.2L375,46z"/>
</svg>
